HIERARCHY
ROOT Hips
{
 OFFSET 0.000000 0.000000 0.000000
 CHANNELS 6 Xposition Yposition Zposition Yrotation Xrotation Zrotation
 JOINT Chest
 {
  OFFSET 0.000000 9.585900 0.002600
  CHANNELS 3 Yrotation Xrotation Zrotation
  JOINT Chest2
  {
   OFFSET 0.000000 9.601200 -0.005300
   CHANNELS 3 Yrotation Xrotation Zrotation
   JOINT Chest3
   {
    OFFSET 0.000000 9.561800 0.000000
    CHANNELS 3 Yrotation Xrotation Zrotation
    JOINT Chest4
    {
     OFFSET 0.000000 9.552100 0.000000
     CHANNELS 3 Yrotation Xrotation Zrotation
     JOINT Neck
     {
      OFFSET 0.000000 14.453000 0.000000
      CHANNELS 3 Yrotation Xrotation Zrotation
      JOINT Head
      {
       OFFSET 0.000000 8.936500 -0.011300
       CHANNELS 3 Yrotation Xrotation Zrotation
       End Site
       {
        OFFSET 0.000000 17.073600 -0.006000
       }
      }
     }
     JOINT RightCollar
     {
      OFFSET -2.921100 9.558500 0.000000
      CHANNELS 3 Yrotation Xrotation Zrotation
      JOINT RightShoulder
      {
       OFFSET -13.519700 0.000000 0.000000
       CHANNELS 3 Yrotation Xrotation Zrotation
       JOINT RightElbow
       {
        OFFSET 0.000000 -29.696600 0.000000
        CHANNELS 3 Yrotation Xrotation Zrotation
        JOINT RightWrist
        {
         OFFSET 0.000000 -24.004700 0.000000
         CHANNELS 3 Yrotation Xrotation Zrotation
         End Site
         {
          OFFSET 0.000000 -17.728500 0.000000
         }
        }
       }
      }
     }
     JOINT LeftCollar
     {
      OFFSET 2.921100 9.558500 0.000000
      CHANNELS 3 Yrotation Xrotation Zrotation
      JOINT LeftShoulder
      {
       OFFSET 13.519700 0.000000 0.000000
       CHANNELS 3 Yrotation Xrotation Zrotation
       JOINT LeftElbow
       {
        OFFSET 0.000000 -29.696600 0.000000
        CHANNELS 3 Yrotation Xrotation Zrotation
        JOINT LeftWrist
        {
         OFFSET 0.000000 -24.004700 0.000000
         CHANNELS 3 Yrotation Xrotation Zrotation
         End Site
         {
          OFFSET 0.000000 -17.728500 0.000000
         }
        }
       }
      }
     }
    }
   }
  }
 }
 JOINT RightHip
 {
  OFFSET -7.771700 -0.012900 -0.001300
  CHANNELS 3 Yrotation Xrotation Zrotation
  JOINT RightKnee
  {
   OFFSET 0.000000 -40.869800 0.001200
   CHANNELS 3 Yrotation Xrotation Zrotation
   JOINT RightAnkle
   {
    OFFSET 0.000000 -39.717900 0.002100
    CHANNELS 3 Yrotation Xrotation Zrotation
    JOINT RightToe
    {
     OFFSET 0.000000 -4.965400 11.033500
     CHANNELS 3 Yrotation Xrotation Zrotation
     End Site
     {
      OFFSET 0.000000 -1.423100 5.872300
     }
    }
   }
  }
 }
 JOINT LeftHip
 {
  OFFSET 7.771700 -0.012900 -0.001300
  CHANNELS 3 Yrotation Xrotation Zrotation
  JOINT LeftKnee
  {
   OFFSET 0.000000 -40.869800 0.001200
   CHANNELS 3 Yrotation Xrotation Zrotation
   JOINT LeftAnkle
   {
    OFFSET 0.000000 -39.717900 0.002100
    CHANNELS 3 Yrotation Xrotation Zrotation
    JOINT LeftToe
    {
     OFFSET 0.000000 -4.965400 11.033500
     CHANNELS 3 Yrotation Xrotation Zrotation
     End Site
     {
      OFFSET 0.000000 -1.423100 5.872300
     }
    }
   }
  }
 }
}
MOTION
Frames: 13
Frame Time: 0.008333
0.000000 85.388000 0.000000 0.000000 -5.767877 0.000000 0.000000 11.653817 0.000000 0.000000 -5.885947 0.000000 0.000000 -0.000000 0.000000 0.000000 -0.000000 0.000000 0.000000 12.528835 0.000000 0.000000 0.711642 0.000000 0.000000 -0.000000 0.000000 0.000000 0.000000 -90.000000 0.000000 -2.309062 0.000000 0.000000 2.309062 0.000000 0.000000 -0.000000 0.000000 0.000000 -0.000000 90.000000 0.000000 -2.309062 0.000000 0.000000 2.309062 0.000000 0.000000 8.520406 0.000000 0.000000 1.905762 0.000000 -0.000000 -4.658285 0.000000 0.000000 -0.000000 0.000000 0.000000 8.520406 0.000000 0.000000 1.905762 0.000000 -0.000000 -4.658285 0.000000 0.000000 -0.000000 0.000000
-159.433159 49.081413 18.149331 176.313182 -30.646456 -3.798321 0.665227 19.044082 2.687797 0.036454 2.273576 0.278034 0.065934 3.747276 0.459368 0.533346 16.547125 2.110639 -1.080345 21.250954 0.156524 -2.002986 3.678735 0.590163 -1.644805 -5.708336 -4.103813 -11.067871 -7.059116 -12.136704 -62.479542 -48.615954 99.088432 8.314198 7.148445 8.398995 -1.409862 -5.042885 3.638000 -3.569489 -2.901682 12.321454 64.965498 -52.600982 -106.521838 1.449181 7.518509 -9.967250 -2.382953 -54.549414 -7.388765 -178.119658 84.057159 -166.155962 -29.025431 -1.564760 -4.152135 -0.153669 -11.898645 1.112844 -14.070210 -55.969389 19.460955 -74.054111 64.992610 -79.326389 30.714234 6.706022 16.395537 0.036321 -0.334656 0.020212
-159.436999 49.081451 18.150095 176.331124 -30.661945 -3.805633 0.655961 19.051390 2.697368 0.036970 2.264836 0.289073 0.064347 3.757309 0.450068 0.529065 16.540121 2.128723 -1.177786 21.209866 0.150786 -2.178371 3.603687 0.608067 -1.594020 -5.876688 -4.194695 -11.274711 -6.677158 -11.886256 -62.493941 -48.338083 99.350813 8.344365 6.952455 9.556216 -1.513318 -5.192597 3.680484 -3.059062 -2.803006 12.089073 64.807350 -51.888237 -106.407624 1.509814 7.210702 -10.999374 -2.378757 -54.531846 -7.395566 -178.044975 84.061022 -166.079270 -29.053721 -1.565679 -4.145739 -0.158146 -11.891969 1.117983 -14.055689 -55.960854 19.443020 -74.059013 64.985768 -79.326065 30.706613 6.718232 16.396464 0.049816 -0.339090 0.023817
-159.444546 49.081153 18.151210 176.348934 -30.672989 -3.794879 0.639202 19.053834 2.687470 0.026420 2.257212 0.299202 0.072938 3.765646 0.441226 0.517488 16.540972 2.131357 -1.294351 21.167344 0.158507 -2.367288 3.539412 0.622032 -1.543182 -6.065025 -4.264206 -11.468201 -6.301733 -11.650831 -62.455670 -47.937050 99.566518 8.160711 6.638158 10.229735 -1.612724 -5.339477 3.744047 -2.506223 -2.712008 11.832859 64.730249 -51.254116 -106.330433 1.659770 6.883222 -11.729179 -2.319966 -54.525360 -7.439891 -177.862914 84.062212 -165.895885 -29.107516 -1.553438 -4.119805 -0.122806 -11.887995 1.114352 -14.029889 -55.956124 19.401095 -74.028844 64.983434 -79.308858 30.727038 6.733241 16.410856 0.036900 -0.351257 0.028376
-159.450864 49.080143 18.154137 176.358951 -30.671121 -3.791596 0.604602 19.021464 2.705539 0.028646 2.275375 0.280032 0.078375 3.762362 0.447612 0.508386 16.550821 2.119689 -1.435648 21.132613 0.163816 -2.573370 3.484767 0.638599 -1.493435 -6.268885 -4.328137 -11.616637 -5.924725 -11.413674 -62.382992 -47.421488 99.714999 7.783753 6.216257 10.454017 -1.705481 -5.481191 3.807615 -1.931465 -2.629212 11.568739 64.701902 -50.674713 -106.259489 1.904587 6.528537 -12.124556 -2.270832 -54.530640 -7.466602 -177.753648 84.054664 -165.801795 -29.051571 -1.540831 -4.113274 -0.138539 -11.877310 1.133139 -13.991049 -55.967280 19.368821 -74.015248 64.976812 -79.293379 30.732066 6.746970 16.432615 0.036229 -0.357455 0.025229
-159.460572 49.079816 18.155295 176.387719 -30.674957 -3.779800 0.561455 19.021372 2.680558 0.012708 2.271360 0.281321 0.046223 3.751321 0.461833 0.460359 16.557399 2.109276 -1.536214 21.115720 0.134228 -2.801074 3.437649 0.667095 -1.365237 -6.477610 -4.422157 -11.689668 -5.535143 -11.148061 -62.303393 -46.812796 99.773494 7.241065 5.710434 10.298636 -1.720715 -5.612016 3.838011 -1.348779 -2.552443 11.308919 64.693448 -50.124450 -106.169371 2.245009 6.147334 -12.183266 -2.218295 -54.528291 -7.537223 -177.760336 84.045283 -165.813691 -29.002513 -1.534344 -4.106910 -0.130102 -11.872136 1.139524 -13.943109 -55.976434 19.310161 -73.976867 64.972397 -79.276791 30.751339 6.765507 16.486318 0.017691 -0.374040 0.013867
-159.467709 49.080980 18.154138 176.416944 -30.692585 -3.785406 0.522717 19.035852 2.671796 -0.007215 2.269930 0.273467 0.039428 3.753283 0.460278 0.433137 16.558653 2.106704 -1.681300 21.092926 0.129146 -3.052370 3.391938 0.712058 -1.268500 -6.713120 -4.491374 -11.670760 -5.124400 -10.835980 -62.233733 -46.132396 99.731128 6.568538 5.149028 9.837189 -1.781902 -5.756492 3.894534 -0.768770 -2.479048 11.055710 64.687343 -49.584673 -106.043128 2.676474 5.739096 -11.922180 -2.195774 -54.509700 -7.561775 -177.691620 84.041095 -165.756623 -28.990889 -1.521196 -4.084653 -0.148906 -11.871165 1.145252 -13.911358 -55.967486 19.276689 -73.964400 64.962149 -79.273146 30.753694 6.779839 16.512302 0.013772 -0.386236 0.017102
-159.470464 49.082141 18.153099 176.427529 -30.709447 -3.810553 0.458442 19.043134 2.657388 0.016283 2.279990 0.277408 0.045154 3.754790 0.461247 0.448619 16.559717 2.110158 -1.893148 21.070121 0.131774 -3.331570 3.336818 0.770857 -1.211687 -6.969930 -4.552220 -11.569325 -4.693593 -10.470621 -62.165560 -45.390204 99.582722 5.810736 4.557124 9.123654 -1.907975 -5.905722 3.959805 -0.209193 -2.409899 10.810837 64.674735 -49.045858 -105.872439 3.197705 5.298077 -11.362290 -2.218690 -54.492929 -7.500748 -177.483113 84.047851 -165.572633 -29.036951 -1.502808 -4.054352 -0.110026 -11.869448 1.139859 -13.874818 -55.961064 19.287407 -73.999975 64.937641 -79.298239 30.726194 6.791118 16.520461 0.036624 -0.392996 0.031130
-159.476068 49.082985 18.150945 176.428184 -30.729344 -3.816446 0.442687 19.061816 2.651753 0.003884 2.282590 0.273515 0.064781 3.754336 0.465893 0.315253 16.590309 2.062026 -2.004989 21.024411 0.146212 -3.642253 3.263882 0.837364 -1.017840 -7.269264 -4.609496 -11.414820 -4.254199 -10.047204 -62.073227 -44.596849 99.327089 5.004500 3.950086 8.167229 -1.930195 -6.076982 4.031525 0.308255 -2.346132 10.575499 64.663987 -48.498665 -105.663117 3.807810 4.830438 -10.530273 -2.129645 -54.468733 -7.538833 -177.311107 84.039786 -165.390974 -28.991446 -1.493347 -4.036688 -0.127753 -11.857385 1.157378 -13.842461 -55.948157 19.282059 -74.005762 64.932949 -79.314151 30.727279 6.796212 16.544750 0.046281 -0.395867 0.026871
-159.482302 49.083538 18.147769 176.426746 -30.753498 -3.820885 0.427650 19.085595 2.645773 0.012283 2.284391 0.275667 0.026308 3.764271 0.454814 0.246223 16.619087 2.032525 -2.171774 20.966041 0.158424 -3.987093 3.171877 0.911168 -0.832756 -7.590291 -4.682671 -11.227048 -3.824389 -9.571050 -61.939467 -43.773833 98.981660 4.163385 3.332354 6.947893 -1.992570 -6.252784 4.093257 0.764101 -2.287999 10.348797 64.660077 -47.927232 -105.421226 4.495697 4.343250 -9.442866 -2.061854 -54.441572 -7.567389 -177.172824 84.036748 -165.239671 -28.994780 -1.486927 -4.023688 -0.110217 -11.850083 1.166506 -13.806199 -55.930366 19.274551 -74.008986 64.924764 -79.329176 30.736655 6.801610 16.569797 0.046477 -0.402699 0.025899
-159.487542 49.083189 18.144757 176.428421 -30.775345 -3.837016 0.324823 19.102939 2.595769 0.017492 2.296978 0.276989 0.029235 3.780553 0.455266 0.240767 16.632062 2.014483 -2.381142 20.904270 0.172303 -4.372306 3.063433 0.998355 -0.663184 -7.911103 -4.767038 -11.005421 -3.425113 -9.060989 -61.761498 -42.955644 98.571812 3.281884 2.695529 5.453690 -2.083988 -6.416045 4.149956 1.143799 -2.236824 10.131551 64.655306 -47.318004 -105.149888 5.255162 3.833135 -8.109666 -2.024541 -54.418907 -7.550386 -176.941901 84.037998 -165.011129 -29.047782 -1.477428 -3.996712 -0.069602 -11.840097 1.171686 -13.785724 -55.912026 19.284502 -74.026743 64.908540 -79.343900 30.729271 6.804888 16.571219 0.062164 -0.400703 0.033766
-159.493636 49.081088 18.142949 176.429724 -30.787397 -3.852377 0.272704 19.107483 2.573382 -0.001724 2.303257 0.269952 0.070387 3.790322 0.468562 0.167296 16.650833 1.980659 -2.613396 20.835872 0.191006 -4.800779 2.944184 1.101541 -0.508685 -8.227174 -4.858842 -10.742573 -3.075152 -8.543891 -61.542122 -42.182184 98.118764 2.357839 2.021881 3.702646 -2.185313 -6.563260 4.205773 1.442937 -2.198837 9.925925 64.644526 -46.667713 -104.852331 6.088538 3.308913 -6.573118 -1.984779 -54.408574 -7.536281 -176.756038 84.038106 -164.828438 -29.102403 -1.467381 -3.967016 -0.127348 -11.826982 1.195244 -13.767914 -55.903438 19.298732 -74.046060 64.890953 -79.359879 30.715369 6.801601 16.567618 0.076687 -0.394104 0.048494
-159.502886 49.079488 18.138105 176.424651 -30.818585 -3.848073 0.220148 19.124790 2.530910 -0.006401 2.308310 0.267609 0.065050 3.807711 0.466929 0.127780 16.658111 1.954333 -2.865497 20.764323 0.214600 -5.266963 2.820886 1.219828 -0.372777 -8.529114 -4.955620 -10.437989 -2.790703 -8.048997 -61.285003 -41.491515 97.643271 1.431028 1.310322 1.781745 -2.291647 -6.690173 4.261865 1.670564 -2.182624 9.732737 64.618272 -45.987150 -104.531347 6.993647 2.782073 -4.900987 -1.911775 -54.381570 -7.566224 -176.644509 84.028642 -164.718989 -29.124950 -1.458570 -3.935345 -0.133147 -11.818941 1.203277 -13.714744 -55.880075 19.279999 -74.042634 64.880394 -79.380172 30.725271 6.798585 16.608228 0.062347 -0.402190 0.047345
